<?xml version="1.0" encoding="UTF-8"?>
<svg id="Layer_1" data-name="Layer 1" xmlns="http://www.w3.org/2000/svg" viewBox="0 0 100 100">
  <defs>
    <style>
      .cls-1 {
        fill: #a7a9ac;
      }
    </style>
  </defs>
  <g id="hPRoCz.tif">
    <g>
      <path class="cls-1" d="M51.49,97.48h-2.96c-3.03-.8-5.22-3.1-5.71-6.22.49-8.94-.72-18.71-.03-27.55.7-8.95,13.73-8.95,14.43,0s-.52,18.61-.03,27.55c-.46,3.17-2.67,5.39-5.71,6.22Z"/>
      <path class="cls-1" d="M80.69,12.01v1.48c-.43.65-.73,1.15-1.58,1.28-1.63.25-8.79-.33-9.51.11-.25.15-.95,1.28-1.49,1.65-2.53,1.73-6.69-.55-9.5,1.77-.67.55-1.09,1.33-1.76,1.94-3.88,3.52-9.8,3.52-13.68,0-.67-.61-1.09-1.38-1.76-1.94-2.81-2.32-6.97-.05-9.5-1.77-.54-.37-1.39-1.68-1.77-1.75-2.77-.34-6.77.48-9.38-.04-1.98-.4-1.96-3.59.19-3.98,1.68-.31,8.73.31,9.47-.14.22-.13.81-1.12,1.31-1.47,2.46-1.73,5.85-.17,8.45-1.16,1.47-.56,2.37-2.14,3.55-3.11,3.48-2.86,8.95-2.92,12.47-.09,1.39,1.12,2.44,3.07,4.34,3.43,3.21.61,7.05-1.13,9.19,2.46,2.87.33,6.4-.35,9.19.05.91.13,1.24.62,1.77,1.28ZM49.42,7.25c-6.91.67-6.23,11.16.69,11.06,7.43-.1,7.03-11.81-.69-11.06Z"/>
      <path class="cls-1" d="M60.36,81.94v-18.41c0-5.11-5.32-9.69-10.25-9.73s-10.45,4.52-10.45,9.73v18.41c-5.69-.67-10.88-4.82-12.43-10.4-1.65-5.94-1.67-16.72-1.43-23,.3-8.01.51-16.95,8.32-21.27,5.99-3.31,24.97-3.37,31.09-.41,8.37,4.06,8.69,13.28,9.02,21.5.25,6.39.21,16.94-1.38,23.03-1.46,5.58-6.78,9.92-12.48,10.54ZM33.51,34.99c-1.47.33-1.54,2.35-1.62,3.56s-.07,3,0,4.27c.15,2.77.27,4.02,3.43,3.98,1.57-.02,2.82-.45,3.03-2.16.18-1.48.22-6.68-.06-8.04-.14-.68-.55-1.32-1.24-1.53-.64-.19-2.89-.23-3.53-.08ZM63.27,34.99c-.98.18-1.47.99-1.6,1.92-.22,1.65-.17,5.67-.02,7.39.17,2.05,1.3,2.52,3.24,2.51,2.93-.03,3.08-1.21,3.24-3.8.1-1.69.12-5.04-.23-6.63-.38-1.73-3.29-1.62-4.63-1.38Z"/>
    </g>
  </g>
</svg>