<?xml version="1.0" encoding="UTF-8"?>
<svg id="Layer_1" data-name="Layer 1" xmlns="http://www.w3.org/2000/svg" viewBox="0 0 100 100">
  <defs>
    <style>
      .cls-1 {
        fill: #a7a9ac;
      }
    </style>
  </defs>
  <g id="d3KKwB.tif">
    <path class="cls-1" d="M54.89,5.28c5.03.22,16.9,1.35,21.26,3.47,6.18,3,6.72,8.26,7.49,14.33.4,3.14.68,6.32.96,9.48l3.48-1.69c.62-1.75.65-8.23,1.66-9.35.95-1.06,3.06-.73,3.32.8.23,1.34-.81,8.09-1.17,9.72-.19.86-.26,1.27-1.01,1.81-.69.49-5.64,2.67-5.71,2.98.42,6.23.25,12.37-.39,18.57-.56,5.39-1.16,11.82-2.1,17.09-.19,1.09-.48,1.95-1.04,2.91-.38.64-1.8,2.02-1.87,2.26-.4,1.34.14,4.69-.04,6.36s-1.49,3.23-3.19,3.58c-1.36.28-5.82.23-7.04-.32-.88-.39-2.38-1.94-2.38-2.89v-5.36l-7.15.19v8.37c0,2.6-2.9,4.81-5.35,4.99-2.03.15-9.19.26-10.82-.3s-3.77-2.9-3.77-4.7v-8.37l-7.15-.19v5.36c0,.06-.4,1.04-.49,1.2-.56,1.07-1.97,1.95-3.18,2.09s-4.65.14-5.75-.08c-4.8-.99-2.6-6.67-3.19-9.79-.13-.67-2.96-2.96-2.76-4.39-1.46-11.23-3.21-22.24-2.88-33.62.03-.93.4-1.97.17-2.97-.17-.49-4.85-2.39-5.68-2.98-.75-.54-.82-.94-1.01-1.81-.36-1.63-1.4-8.38-1.17-9.72.25-1.47,2.32-1.89,3.27-.85.4.44.5,1.26.61,1.83.49,2.45.57,5.1,1.09,7.56l3.48,1.69c.49-4.21.75-8.48,1.34-12.67,1.6-11.37,8.71-12.57,18.72-13.82,2.64-.33,5.56-.66,8.16-.78,3.53-.16,7.76-.15,11.29,0ZM73.33,39.14c-.49-5.38-.9-10.79-1.64-16.14-.53-2.1-2.47-3.7-4.66-3.81-11.68.1-23.4-.17-35.06.14-1.91.61-3.23,2.03-3.75,3.96l-1.55,15.85h46.65ZM49.01,46.34c-8.18,1.11-7.11,14.16,2,13.1,8.15-.95,6.97-14.31-2-13.1ZM25.3,48.21c-1.87,1.19-1.18,3.26.92,3.51,1.55.19,5.55.19,7.08-.03,2.57-.37,2.39-3.23.6-3.51-2.51-.39-5.99.24-8.6.03ZM65.94,48.21c-1.94,1-1.42,3.17.76,3.48,1.53.22,5.53.22,7.08.03,2.21-.27,2.8-2.55.77-3.55l-8.61.04ZM62.79,74.88c-4.63-11.72-20.94-11.7-25.58,0h25.58Z"/>
  </g>
</svg>