<?xml version="1.0" encoding="UTF-8"?>
<svg id="Layer_1" data-name="Layer 1" xmlns="http://www.w3.org/2000/svg" viewBox="0 0 100 100">
  <defs>
    <style>
      .cls-1 {
        fill: #a7a9ac;
      }
    </style>
  </defs>
  <g id="egFK00.tif">
    <path class="cls-1" d="M13.28,85.48c-1.9-.22-3.41-1.51-3.59-3.47-.27-3.05.25-6.47-.03-9.56-5.21-4.97-6.7-12.76-3.89-19.39l2.42-4.07h-3.3c-.49,0-1.35-.96-1.56-1.45-.48-1.12-1.36-5.47-1.49-6.79-.17-1.67.17-3.2,2.11-3.43,1.4-.17,9.26.24,9.68-.02,1.97-4.68,4.35-11.38,8.7-14.36,11.32-7.76,43.85-7.72,55.22-.08,4.4,2.96,6.86,9.71,8.81,14.43l9.85.04c.95.21,1.58.84,1.99,1.68v1.88c-.83,1.68-.81,6.25-2.06,7.44-.13.12-.98.65-1.04.65h-3.48l1.98,3.01c2.94,5.45,2.7,12.66-.89,17.75-.47.66-2.24,2.43-2.37,2.9-.54,1.86.18,7.01-.03,9.37-.19,2.1-1.65,3.11-3.59,3.47h-8.85c-1.58-.35-2.84-.87-3.43-2.5-.07-.18-.34-1.08-.34-1.17v-3.86H25.89v3.86c0,.08-.27.99-.34,1.17-.59,1.63-1.85,2.15-3.43,2.5-2.8-.24-6.12.32-8.85,0ZM20.24,41.08h59.5c-1.15-2.85-2.22-5.91-3.73-8.59-.75-1.33-1.62-2.65-2.91-3.49-8.95-5.82-37.28-5.85-46.21,0-3.38,2.21-5.02,8.52-6.65,12.08ZM21.32,53.73c-4.96.71-7.44,6.99-4.63,11.12,3.22,4.73,10.66,3.98,12.68-1.38s-2.39-10.55-8.05-9.74ZM75.93,53.73c-7.37,1.15-7.7,12.93.23,14.17,10.97,1.72,11.24-15.95-.23-14.17Z"/>
  </g>
</svg>